<svg width="80" height="24" viewBox="0 0 80 24" fill="none" xmlns="http://www.w3.org/2000/svg">
<path d="M2.5 6.25H0C0 7.83854 0.390625 9.3099 1.17188 10.6641C1.95312 11.9922 3.00781 13.0469 4.33594 13.8281C5.6901 14.6094 7.16146 15 8.75 15V20.625C8.75 20.8073 8.80208 20.9505 8.90625 21.0547C9.03646 21.1849 9.19271 21.25 9.375 21.25H10.625C10.8073 21.25 10.9505 21.1849 11.0547 21.0547C11.1849 20.9505 11.25 20.8073 11.25 20.625V15C11.25 13.4115 10.8594 11.9531 10.0781 10.625C9.29688 9.27083 8.22917 8.20312 6.875 7.42188C5.54688 6.64062 4.08854 6.25 2.5 6.25ZM17.5 3.75C15.8854 3.75 14.401 4.16667 13.0469 5C11.6927 5.80729 10.625 6.88802 9.84375 8.24219C10.9635 9.46615 11.7318 10.8724 12.1484 12.4609C13.6068 12.3047 14.9349 11.8229 16.1328 11.0156C17.3307 10.2083 18.2682 9.16667 18.9453 7.89062C19.6484 6.61458 20 5.23438 20 3.75H17.5Z" fill="#2F80ED"/>
<path d="M32.7969 19V4.78125H36.9961C38.5195 4.78125 39.6751 5.09701 40.4629 5.72852C41.2507 6.35352 41.6445 7.27799 41.6445 8.50195C41.6445 9.23763 41.4427 9.87891 41.0391 10.4258C40.6419 10.9661 40.0951 11.3535 39.3984 11.5879C40.2253 11.7702 40.8893 12.1771 41.3906 12.8086C41.8984 13.4401 42.1523 14.1693 42.1523 14.9961C42.1523 16.2526 41.7454 17.2357 40.9316 17.9453C40.1243 18.6484 38.998 19 37.5527 19H32.7969ZM33.998 12.1641V17.9844H37.6016C38.6302 17.9844 39.444 17.724 40.043 17.2031C40.6484 16.6758 40.9512 15.9466 40.9512 15.0156C40.9512 14.1367 40.6615 13.4434 40.082 12.9355C39.5091 12.4212 38.7148 12.1641 37.6992 12.1641H33.998ZM33.998 11.1582H37.2793C38.2819 11.1387 39.0566 10.9043 39.6035 10.4551C40.1569 9.99935 40.4336 9.33854 40.4336 8.47266C40.4336 7.5612 40.1471 6.89062 39.5742 6.46094C39.0078 6.02474 38.1484 5.80664 36.9961 5.80664H33.998V11.1582ZM46.0977 19H44.9258V4H46.0977V19ZM55.9512 19C55.834 18.668 55.7591 18.1764 55.7266 17.5254C55.3164 18.0592 54.7923 18.4727 54.1543 18.7656C53.5228 19.0521 52.8522 19.1953 52.1426 19.1953C51.127 19.1953 50.3034 18.9121 49.6719 18.3457C49.0469 17.7793 48.7344 17.0632 48.7344 16.1973C48.7344 15.1686 49.1608 14.3548 50.0137 13.7559C50.873 13.1569 52.0677 12.8574 53.5977 12.8574H55.7168V11.6562C55.7168 10.901 55.4824 10.3086 55.0137 9.87891C54.5514 9.44271 53.8743 9.22461 52.9824 9.22461C52.1686 9.22461 51.4948 9.43294 50.9609 9.84961C50.4271 10.2663 50.1602 10.7676 50.1602 11.3535L48.9883 11.3438C48.9883 10.5039 49.3789 9.77799 50.1602 9.16602C50.9414 8.54753 51.9017 8.23828 53.041 8.23828C54.2194 8.23828 55.1471 8.53451 55.8242 9.12695C56.5078 9.71289 56.8594 10.5332 56.8789 11.5879V16.5879C56.8789 17.61 56.9863 18.375 57.2012 18.8828V19H55.9512ZM52.2793 18.1602C53.0605 18.1602 53.7572 17.9714 54.3691 17.5938C54.9876 17.2161 55.4368 16.7116 55.7168 16.0801V13.7559H53.627C52.4616 13.7689 51.5501 13.9837 50.8926 14.4004C50.235 14.8105 49.9062 15.377 49.9062 16.0996C49.9062 16.6921 50.1243 17.1836 50.5605 17.5742C51.0033 17.9648 51.5762 18.1602 52.2793 18.1602ZM59.5352 13.6191C59.5352 11.9785 59.8997 10.6732 60.6289 9.70312C61.3646 8.72656 62.3607 8.23828 63.6172 8.23828C65.043 8.23828 66.1302 8.80143 66.8789 9.92773V4H68.041V19H66.9473L66.8984 17.5938C66.1497 18.6615 65.0495 19.1953 63.5977 19.1953C62.3802 19.1953 61.3971 18.707 60.6484 17.7305C59.9062 16.7474 59.5352 15.4225 59.5352 13.7559V13.6191ZM60.7168 13.8242C60.7168 15.1719 60.987 16.2363 61.5273 17.0176C62.0677 17.7923 62.8294 18.1797 63.8125 18.1797C65.2513 18.1797 66.2734 17.5449 66.8789 16.2754V11.3145C66.2734 9.94076 65.2578 9.25391 63.832 9.25391C62.849 9.25391 62.084 9.64128 61.5371 10.416C60.9902 11.1842 60.7168 12.3203 60.7168 13.8242ZM75.209 19.1953C74.3105 19.1953 73.4967 18.974 72.7676 18.5312C72.0449 18.0885 71.4818 17.4733 71.0781 16.6855C70.6745 15.8913 70.4727 15.0026 70.4727 14.0195V13.5996C70.4727 12.584 70.668 11.6693 71.0586 10.8555C71.4557 10.0417 72.0059 9.40365 72.709 8.94141C73.4121 8.47266 74.1738 8.23828 74.9941 8.23828C76.2767 8.23828 77.2923 8.67773 78.041 9.55664C78.7962 10.429 79.1738 11.6237 79.1738 13.1406V13.7949H71.6348V14.0195C71.6348 15.2174 71.9766 16.2168 72.6602 17.0176C73.3503 17.8118 74.2161 18.209 75.2578 18.209C75.8828 18.209 76.4329 18.0951 76.9082 17.8672C77.39 17.6393 77.8262 17.2747 78.2168 16.7734L78.9492 17.3301C78.0898 18.5736 76.8431 19.1953 75.209 19.1953ZM74.9941 9.23438C74.1152 9.23438 73.373 9.55664 72.7676 10.2012C72.1686 10.8457 71.804 11.7116 71.6738 12.7988H78.0117V12.6719C77.9792 11.6562 77.6895 10.8294 77.1426 10.1914C76.5957 9.55339 75.8796 9.23438 74.9941 9.23438Z" fill="black"/>
</svg>
