<svg width="20" height="19" viewBox="0 0 20 19" fill="none" xmlns="http://www.w3.org/2000/svg">
<path d="M2.5 3.25H0C0 4.83854 0.390625 6.3099 1.17188 7.66406C1.95312 8.99219 3.00781 10.0469 4.33594 10.8281C5.6901 11.6094 7.16146 12 8.75 12V17.625C8.75 17.8073 8.80208 17.9505 8.90625 18.0547C9.03646 18.1849 9.19271 18.25 9.375 18.25H10.625C10.8073 18.25 10.9505 18.1849 11.0547 18.0547C11.1849 17.9505 11.25 17.8073 11.25 17.625V12C11.25 10.4115 10.8594 8.95312 10.0781 7.625C9.29688 6.27083 8.22917 5.20312 6.875 4.42188C5.54688 3.64062 4.08854 3.25 2.5 3.25ZM17.5 0.75C15.8854 0.75 14.401 1.16667 13.0469 2C11.6927 2.80729 10.625 3.88802 9.84375 5.24219C10.9635 6.46615 11.7318 7.8724 12.1484 9.46094C13.6068 9.30469 14.9349 8.82292 16.1328 8.01562C17.3307 7.20833 18.2682 6.16667 18.9453 4.89062C19.6484 3.61458 20 2.23438 20 0.75H17.5Z" fill="#2F80ED"/>
</svg>
